<?xml version="1.0" encoding="utf-8"?>
<!-- Generator: Adobe Illustrator 26.0.1, SVG Export Plug-In . SVG Version: 6.00 Build 0)  -->
<svg version="1.1" id="Layer_1" xmlns="http://www.w3.org/2000/svg" xmlns:xlink="http://www.w3.org/1999/xlink" x="0px" y="0px"
	 viewBox="0 0 20 20" style="enable-background:new 0 0 20 20;" xml:space="preserve">
<style type="text/css">
	.st0{fill:#FFFFFF;}
</style>
<g>
	<g>
		<path class="st0" d="M10,3.47c0.58,0,1.06,0.48,1.06,1.06S10.58,5.59,10,5.59S8.94,5.12,8.94,4.53S9.42,3.47,10,3.47 M10,2.97
			c-0.86,0-1.56,0.7-1.56,1.56S9.14,6.09,10,6.09s1.56-0.7,1.56-1.56S10.86,2.97,10,2.97L10,2.97z"/>
	</g>
	<g>
		<path class="st0" d="M10,8.98c0.58,0,1.06,0.48,1.06,1.06S10.58,11.1,10,11.1s-1.06-0.48-1.06-1.06S9.42,8.98,10,8.98 M10,8.48
			c-0.86,0-1.56,0.7-1.56,1.56c0,0.86,0.7,1.56,1.56,1.56s1.56-0.7,1.56-1.56C11.56,9.17,10.86,8.48,10,8.48L10,8.48z"/>
	</g>
	<g>
		<path class="st0" d="M10,14.39c0.58,0,1.06,0.48,1.06,1.06s-0.48,1.06-1.06,1.06s-1.06-0.48-1.06-1.06S9.42,14.39,10,14.39
			 M10,13.89c-0.86,0-1.56,0.7-1.56,1.56c0,0.86,0.7,1.56,1.56,1.56s1.56-0.7,1.56-1.56C11.56,14.59,10.86,13.89,10,13.89L10,13.89z
			"/>
	</g>
</g>
</svg>
